<svg width="1920" height="2132" viewBox="0 0 1920 2132" fill="none" xmlns="http://www.w3.org/2000/svg">
<path d="M1919.5 0.55144V2131.45L1918.36 2131.34L1916.08 2131.12L1913.39 2130.86C1909.01 2130.43 1902.54 2129.81 1894.18 2129.03C1877.45 2127.45 1853.14 2125.2 1822.79 2122.5C1762.09 2117.1 1677.25 2109.89 1580.69 2102.69C1387.58 2088.28 1147.56 2073.88 960 2073.88C772.437 2073.88 532.422 2088.28 339.305 2102.69C242.745 2109.89 157.907 2117.1 97.2092 2122.5C66.86 2125.2 42.5458 2127.45 25.8187 2129.03C17.4552 2129.81 10.9884 2130.43 6.61243 2130.86C4.42444 2131.07 2.75916 2131.23 1.64084 2131.34L0.5 2131.45V0.55147C0.776984 0.578599 1.15791 0.615849 1.64084 0.662936C2.75916 0.771978 4.42444 0.933774 6.61243 1.14481C10.9884 1.56688 17.4552 2.18589 25.8187 2.97373C42.5458 4.54939 66.86 6.80031 97.2092 9.50141C157.907 14.9036 242.745 22.1065 339.305 29.3094C532.422 43.715 772.437 58.1216 960 58.1216C1147.56 58.1216 1387.58 43.715 1580.69 29.3094C1677.25 22.1065 1762.09 14.9036 1822.79 9.50141C1853.14 6.80031 1877.45 4.54939 1894.18 2.97373C1902.54 2.18589 1909.01 1.56688 1913.39 1.14481C1915.58 0.933774 1917.24 0.771978 1918.36 0.662936L1919.5 0.55144Z" fill="url(#paint0_linear_811_1101)" fill-opacity="0.87" stroke="white"/>
<defs>
<linearGradient id="paint0_linear_811_1101" x1="0" y1="1066" x2="1920" y2="1066" gradientUnits="userSpaceOnUse">
<stop stop-color="#151515"/>
<stop offset="1" stop-color="#161414"/>
</linearGradient>
</defs>
</svg>
